<svg width="14" height="12" viewBox="0 0 14 12" fill="none" xmlns="http://www.w3.org/2000/svg">
<path d="M1.32373 12C1.25179 12 1.1862 11.9788 1.12695 11.9365C1.06771 11.89 1.02962 11.8307 1.0127 11.7588C0.991536 11.6911 0.993652 11.6234 1.01904 11.5557C1.04867 11.488 1.09521 11.4351 1.15869 11.397C1.43376 11.2319 1.66862 11.0521 1.86328 10.8574C2.06217 10.6628 2.22933 10.4723 2.36475 10.2861C2.50439 10.0957 2.61442 9.91797 2.69482 9.75293C2.77523 9.58366 2.83447 9.44189 2.87256 9.32764C2.57633 9.09912 2.31185 8.85156 2.0791 8.58496C1.84635 8.31413 1.64958 8.0306 1.48877 7.73438C1.32796 7.43392 1.20524 7.12288 1.12061 6.80127C1.0402 6.47965 1 6.15381 1 5.82373C1 5.48942 1.04232 5.16146 1.12695 4.83984C1.21159 4.51823 1.33643 4.20508 1.50146 3.90039C1.57764 3.75228 1.66439 3.61051 1.76172 3.4751C1.85905 3.33545 1.96273 3.20215 2.07275 3.0752C2.18278 2.94401 2.30127 2.81917 2.42822 2.70068C2.55941 2.57796 2.69694 2.46159 2.84082 2.35156C3.12858 2.12728 3.43962 1.92839 3.77393 1.75488C4.11247 1.57715 4.4637 1.42904 4.82764 1.31055C5.1958 1.19206 5.57666 1.10319 5.97021 1.04395C6.36377 0.980469 6.76579 0.94873 7.17627 0.94873C7.58252 0.94873 7.98242 0.980469 8.37598 1.04395C8.76953 1.10319 9.15039 1.19206 9.51855 1.31055C9.88672 1.42904 10.238 1.57715 10.5723 1.75488C10.9066 1.92839 11.2197 2.12728 11.5117 2.35156C11.6556 2.46159 11.791 2.57796 11.918 2.70068C12.0449 2.81917 12.1634 2.94401 12.2734 3.0752C12.3877 3.20215 12.4914 3.33545 12.5845 3.4751C12.6818 3.61051 12.7707 3.75228 12.8511 3.90039C13.0161 4.20508 13.141 4.51823 13.2256 4.83984C13.3102 5.16146 13.3525 5.48942 13.3525 5.82373C13.3525 6.15804 13.3102 6.48812 13.2256 6.81396C13.141 7.13558 13.0161 7.44873 12.8511 7.75342C12.7707 7.8973 12.6818 8.03906 12.5845 8.17871C12.4914 8.31413 12.3877 8.44743 12.2734 8.57861C12.1634 8.70557 12.0449 8.8304 11.918 8.95312C11.791 9.07161 11.6556 9.18587 11.5117 9.2959C11.2197 9.52441 10.9066 9.72542 10.5723 9.89893C10.238 10.0724 9.88672 10.2184 9.51855 10.3369C9.15462 10.4554 8.77376 10.5464 8.37598 10.6099C7.98242 10.6691 7.58252 10.6987 7.17627 10.6987C6.83773 10.6987 6.50342 10.6776 6.17334 10.6353C5.84749 10.5929 5.52799 10.5316 5.21484 10.4512C5.0752 10.5443 4.88053 10.667 4.63086 10.8193C4.38118 10.9674 4.10189 11.1198 3.79297 11.2764C3.55176 11.3949 3.31901 11.5007 3.09473 11.5938C2.87044 11.6826 2.65462 11.7588 2.44727 11.8223C2.23991 11.8815 2.04313 11.9259 1.85693 11.9556C1.67074 11.9852 1.493 12 1.32373 12ZM7.17627 1.60254C6.41455 1.60254 5.69727 1.71257 5.02441 1.93262C4.35579 2.15267 3.76969 2.45524 3.26611 2.84033C2.76676 3.22119 2.37109 3.66976 2.0791 4.18604C1.79134 4.69808 1.64746 5.24398 1.64746 5.82373C1.64746 6.11995 1.68766 6.41195 1.76807 6.69971C1.84847 6.98324 1.96484 7.2583 2.11719 7.5249C2.26953 7.7915 2.45573 8.04541 2.67578 8.28662C2.90007 8.5236 3.15609 8.74154 3.44385 8.94043C3.49886 8.97852 3.53695 9.03141 3.55811 9.09912C3.5835 9.1626 3.58773 9.22607 3.5708 9.28955C3.54964 9.36149 3.51579 9.46094 3.46924 9.58789C3.42692 9.71484 3.36556 9.85872 3.28516 10.0195C3.20475 10.1803 3.10319 10.3538 2.98047 10.54C2.86198 10.7262 2.71598 10.9146 2.54248 11.105C2.75407 11.0288 2.96777 10.9421 3.18359 10.8447C3.39941 10.7474 3.611 10.6437 3.81836 10.5337C4.02995 10.4194 4.23307 10.3031 4.42773 10.1846C4.6224 10.0618 4.80436 9.94336 4.97363 9.8291C5.01172 9.79948 5.05404 9.78255 5.10059 9.77832C5.15137 9.76986 5.20003 9.77197 5.24658 9.78467C5.5555 9.87354 5.87077 9.94124 6.19238 9.98779C6.514 10.0301 6.84196 10.0513 7.17627 10.0513C7.93799 10.0513 8.65316 9.94124 9.32178 9.72119C9.99463 9.49691 10.5807 9.19434 11.0801 8.81348C11.5794 8.42839 11.973 7.97982 12.2607 7.46777C12.5527 6.95573 12.6987 6.40771 12.6987 5.82373C12.6987 5.24398 12.5527 4.69808 12.2607 4.18604C11.973 3.66976 11.5794 3.22119 11.0801 2.84033C10.5807 2.45524 9.99463 2.15267 9.32178 1.93262C8.65316 1.71257 7.93799 1.60254 7.17627 1.60254Z" fill="#999999"/>
</svg>
