<svg width="13" height="9" viewBox="0 0 13 9" fill="none" xmlns="http://www.w3.org/2000/svg">
<path d="M12.6763 8.05127H2.92627C2.8374 8.05127 2.76123 8.01953 2.69775 7.95605C2.63428 7.89258 2.60254 7.81641 2.60254 7.72754C2.60254 7.63444 2.63428 7.55615 2.69775 7.49268C2.76123 7.4292 2.8374 7.39746 2.92627 7.39746H12.6763C12.7651 7.39746 12.8413 7.4292 12.9048 7.49268C12.9683 7.55615 13 7.63444 13 7.72754C13 7.81641 12.9683 7.89258 12.9048 7.95605C12.8413 8.01953 12.7651 8.05127 12.6763 8.05127ZM12.6763 4.80127H2.92627C2.8374 4.80127 2.76123 4.76953 2.69775 4.70605C2.63428 4.64258 2.60254 4.56641 2.60254 4.47754C2.60254 4.38444 2.63428 4.30615 2.69775 4.24268C2.76123 4.1792 2.8374 4.14746 2.92627 4.14746H12.6763C12.7651 4.14746 12.8413 4.1792 12.9048 4.24268C12.9683 4.30615 13 4.38444 13 4.47754C13 4.56641 12.9683 4.64258 12.9048 4.70605C12.8413 4.76953 12.7651 4.80127 12.6763 4.80127ZM12.6763 1.55127H2.92627C2.8374 1.55127 2.76123 1.51953 2.69775 1.45605C2.63428 1.39258 2.60254 1.31641 2.60254 1.22754C2.60254 1.13444 2.63428 1.05615 2.69775 0.992676C2.76123 0.929199 2.8374 0.897461 2.92627 0.897461H12.6763C12.7651 0.897461 12.8413 0.929199 12.9048 0.992676C12.9683 1.05615 13 1.13444 13 1.22754C13 1.31641 12.9683 1.39258 12.9048 1.45605C12.8413 1.51953 12.7651 1.55127 12.6763 1.55127ZM0.977539 2.19873C0.706706 2.19873 0.476074 2.10352 0.285645 1.91309C0.0952148 1.72266 0 1.49414 0 1.22754C0 0.956706 0.0952148 0.726074 0.285645 0.535645C0.476074 0.345215 0.706706 0.25 0.977539 0.25C1.24414 0.25 1.47266 0.345215 1.66309 0.535645C1.85352 0.726074 1.94873 0.956706 1.94873 1.22754C1.94873 1.49414 1.85352 1.72266 1.66309 1.91309C1.47266 2.10352 1.24414 2.19873 0.977539 2.19873ZM0.977539 0.897461C0.88444 0.897461 0.806152 0.929199 0.742676 0.992676C0.679199 1.05615 0.647461 1.13444 0.647461 1.22754C0.647461 1.31641 0.679199 1.39258 0.742676 1.45605C0.806152 1.51953 0.88444 1.55127 0.977539 1.55127C1.06641 1.55127 1.14258 1.51953 1.20605 1.45605C1.26953 1.39258 1.30127 1.31641 1.30127 1.22754C1.30127 1.13444 1.26953 1.05615 1.20605 0.992676C1.14258 0.929199 1.06641 0.897461 0.977539 0.897461ZM0.977539 5.44873C0.706706 5.44873 0.476074 5.35352 0.285645 5.16309C0.0952148 4.97266 0 4.74414 0 4.47754C0 4.20671 0.0952148 3.97607 0.285645 3.78564C0.476074 3.59521 0.706706 3.5 0.977539 3.5C1.24414 3.5 1.47266 3.59521 1.66309 3.78564C1.85352 3.97607 1.94873 4.20671 1.94873 4.47754C1.94873 4.74414 1.85352 4.97266 1.66309 5.16309C1.47266 5.35352 1.24414 5.44873 0.977539 5.44873ZM0.977539 4.14746C0.88444 4.14746 0.806152 4.1792 0.742676 4.24268C0.679199 4.30615 0.647461 4.38444 0.647461 4.47754C0.647461 4.56641 0.679199 4.64258 0.742676 4.70605C0.806152 4.76953 0.88444 4.80127 0.977539 4.80127C1.06641 4.80127 1.14258 4.76953 1.20605 4.70605C1.26953 4.64258 1.30127 4.56641 1.30127 4.47754C1.30127 4.38444 1.26953 4.30615 1.20605 4.24268C1.14258 4.1792 1.06641 4.14746 0.977539 4.14746ZM0.977539 8.69873C0.706706 8.69873 0.476074 8.60352 0.285645 8.41309C0.0952148 8.22266 0 7.99414 0 7.72754C0 7.45671 0.0952148 7.22607 0.285645 7.03564C0.476074 6.84521 0.706706 6.75 0.977539 6.75C1.24414 6.75 1.47266 6.84521 1.66309 7.03564C1.85352 7.22607 1.94873 7.45671 1.94873 7.72754C1.94873 7.99414 1.85352 8.22266 1.66309 8.41309C1.47266 8.60352 1.24414 8.69873 0.977539 8.69873ZM0.977539 7.39746C0.88444 7.39746 0.806152 7.4292 0.742676 7.49268C0.679199 7.55615 0.647461 7.63444 0.647461 7.72754C0.647461 7.81641 0.679199 7.89258 0.742676 7.95605C0.806152 8.01953 0.88444 8.05127 0.977539 8.05127C1.06641 8.05127 1.14258 8.01953 1.20605 7.95605C1.26953 7.89258 1.30127 7.81641 1.30127 7.72754C1.30127 7.63444 1.26953 7.55615 1.20605 7.49268C1.14258 7.4292 1.06641 7.39746 0.977539 7.39746Z" fill="#999999"/>
</svg>
