<svg width="63" height="63" viewBox="0 0 63 63" fill="none" xmlns="http://www.w3.org/2000/svg">
<circle cx="31.5" cy="31.5" r="30.5" stroke="#51B950" stroke-width="2"/>
<path d="M34.0469 20.25L33.6719 36.2969H30.4531L30.0625 20.25H34.0469ZM29.9531 41.2188C29.9531 40.6458 30.1406 40.1667 30.5156 39.7812C30.901 39.3854 31.4323 39.1875 32.1094 39.1875C32.776 39.1875 33.3021 39.3854 33.6875 39.7812C34.0729 40.1667 34.2656 40.6458 34.2656 41.2188C34.2656 41.7708 34.0729 42.2448 33.6875 42.6406C33.3021 43.026 32.776 43.2188 32.1094 43.2188C31.4323 43.2188 30.901 43.026 30.5156 42.6406C30.1406 42.2448 29.9531 41.7708 29.9531 41.2188Z" fill="#51B950"/>
</svg>
