<svg width="13" height="13" viewBox="0 0 13 13" fill="none" xmlns="http://www.w3.org/2000/svg">
<path d="M7.47754 4.85254C7.56641 4.85254 7.64258 4.8208 7.70605 4.75732C7.76953 4.69385 7.80127 4.61556 7.80127 4.52246V1.92627C7.80127 1.65544 7.70605 1.4248 7.51562 1.23438C7.3252 1.04395 7.09456 0.94873 6.82373 0.94873H0.977539C0.706706 0.94873 0.476074 1.04395 0.285645 1.23438C0.0952148 1.4248 0 1.65544 0 1.92627V9.72754C0 9.96875 0.0761719 10.2057 0.228516 10.4385C0.385091 10.6712 0.573405 10.8341 0.793457 10.9272L4.15137 12.3682C4.20638 12.3936 4.26351 12.4126 4.32275 12.4253C4.382 12.438 4.43913 12.4443 4.49414 12.4443C4.56608 12.4443 4.63379 12.4338 4.69727 12.4126C4.76074 12.3957 4.8221 12.3682 4.88135 12.3301C4.98291 12.2624 5.0612 12.1714 5.11621 12.0571C5.17122 11.9429 5.19873 11.8159 5.19873 11.6763V10.6987H6.82373C7.09456 10.6987 7.3252 10.6035 7.51562 10.4131C7.70605 10.2227 7.80127 9.99414 7.80127 9.72754V7.125C7.80127 7.03613 7.76953 6.95996 7.70605 6.89648C7.64258 6.83301 7.56641 6.80127 7.47754 6.80127C7.38444 6.80127 7.30615 6.83301 7.24268 6.89648C7.1792 6.95996 7.14746 7.03613 7.14746 7.125V9.72754C7.14746 9.81641 7.11572 9.89258 7.05225 9.95605C6.98877 10.0195 6.9126 10.0513 6.82373 10.0513H5.19873V3.875C5.19873 3.63379 5.12256 3.39681 4.97021 3.16406C4.81787 2.93132 4.62956 2.76628 4.40527 2.66895L1.91064 1.60254H6.82373C6.9126 1.60254 6.98877 1.63428 7.05225 1.69775C7.11572 1.76123 7.14746 1.8374 7.14746 1.92627V4.52246C7.14746 4.61556 7.1792 4.69385 7.24268 4.75732C7.30615 4.8208 7.38444 4.85254 7.47754 4.85254ZM4.15137 3.26562C4.25293 3.31217 4.34391 3.39681 4.42432 3.51953C4.50895 3.64225 4.55127 3.76074 4.55127 3.875V11.6763C4.55127 11.7101 4.54704 11.7376 4.53857 11.7588C4.53434 11.7757 4.52799 11.7863 4.51953 11.7905C4.5153 11.7905 4.5026 11.7905 4.48145 11.7905C4.46029 11.7905 4.4349 11.7842 4.40527 11.7715L1.04736 10.3306C0.945801 10.2882 0.852702 10.2057 0.768066 10.083C0.687663 9.96029 0.647461 9.8418 0.647461 9.72754V1.92627C0.647461 1.90088 0.649577 1.87549 0.653809 1.8501C0.662272 1.82471 0.672852 1.80143 0.685547 1.78027L4.15137 3.26562ZM11.9272 5.59521L9.97852 3.64648C9.91504 3.58301 9.83887 3.55127 9.75 3.55127C9.66113 3.55127 9.58496 3.58301 9.52148 3.64648C9.45801 3.70996 9.42627 3.78613 9.42627 3.875C9.42627 3.96387 9.45801 4.04004 9.52148 4.10352L10.918 5.5H6.82373C6.73486 5.5 6.65869 5.53174 6.59521 5.59521C6.53174 5.65869 6.5 5.73486 6.5 5.82373C6.5 5.9126 6.53174 5.98877 6.59521 6.05225C6.65869 6.11572 6.73486 6.14746 6.82373 6.14746H10.918L9.52148 7.54395C9.45801 7.60742 9.42627 7.68571 9.42627 7.77881C9.42627 7.86768 9.45801 7.94385 9.52148 8.00732C9.55111 8.03695 9.58496 8.06022 9.62305 8.07715C9.66536 8.09408 9.70768 8.10254 9.75 8.10254C9.79232 8.10254 9.83252 8.09408 9.87061 8.07715C9.91292 8.06022 9.94889 8.03695 9.97852 8.00732L11.9272 6.05225C11.9907 5.98877 12.0225 5.9126 12.0225 5.82373C12.0225 5.73486 11.9907 5.65869 11.9272 5.59521Z" fill="#999999"/>
</svg>
