<svg width="13" height="13" viewBox="0 0 13 13" fill="none" xmlns="http://www.w3.org/2000/svg">
<path d="M11.375 12.6475H0.977539C0.706706 12.6475 0.476074 12.5522 0.285645 12.3618C0.0952148 12.1714 0 11.9429 0 11.6763V1.27246C0 1.00586 0.0952148 0.777344 0.285645 0.586914C0.476074 0.396484 0.706706 0.30127 0.977539 0.30127H11.375C11.6458 0.30127 11.8765 0.396484 12.0669 0.586914C12.2573 0.777344 12.3525 1.00586 12.3525 1.27246V11.6763C12.3525 11.9429 12.2573 12.1714 12.0669 12.3618C11.8765 12.5522 11.6458 12.6475 11.375 12.6475ZM0.977539 0.94873C0.88444 0.94873 0.806152 0.980469 0.742676 1.04395C0.679199 1.10742 0.647461 1.18359 0.647461 1.27246V11.6763C0.647461 11.7651 0.679199 11.8413 0.742676 11.9048C0.806152 11.9683 0.88444 12 0.977539 12H11.375C11.4639 12 11.54 11.9683 11.6035 11.9048C11.667 11.8413 11.6987 11.7651 11.6987 11.6763V1.27246C11.6987 1.18359 11.667 1.10742 11.6035 1.04395C11.54 0.980469 11.4639 0.94873 11.375 0.94873H0.977539ZM4.22754 10.6987H2.92627C2.8374 10.6987 2.76123 10.667 2.69775 10.6035C2.63428 10.54 2.60254 10.4639 2.60254 10.375V4.52246C2.60254 4.43359 2.63428 4.35742 2.69775 4.29395C2.76123 4.23047 2.8374 4.19873 2.92627 4.19873H4.22754C4.31641 4.19873 4.39258 4.23047 4.45605 4.29395C4.51953 4.35742 4.55127 4.43359 4.55127 4.52246V10.375C4.55127 10.4639 4.51953 10.54 4.45605 10.6035C4.39258 10.667 4.31641 10.6987 4.22754 10.6987ZM3.25 10.0513H3.89746V4.85254H3.25V10.0513ZM6.82373 10.6987H5.52246C5.43359 10.6987 5.35742 10.667 5.29395 10.6035C5.23047 10.54 5.19873 10.4639 5.19873 10.375V2.57373C5.19873 2.48486 5.23047 2.40869 5.29395 2.34521C5.35742 2.28174 5.43359 2.25 5.52246 2.25H6.82373C6.9126 2.25 6.98877 2.28174 7.05225 2.34521C7.11572 2.40869 7.14746 2.48486 7.14746 2.57373V10.375C7.14746 10.4639 7.11572 10.54 7.05225 10.6035C6.98877 10.667 6.9126 10.6987 6.82373 10.6987ZM5.85254 10.0513H6.5V2.89746H5.85254V10.0513ZM9.42627 10.6987H8.125C8.03613 10.6987 7.95996 10.667 7.89648 10.6035C7.83301 10.54 7.80127 10.4639 7.80127 10.375V7.125C7.80127 7.03613 7.83301 6.95996 7.89648 6.89648C7.95996 6.83301 8.03613 6.80127 8.125 6.80127H9.42627C9.51514 6.80127 9.59131 6.83301 9.65479 6.89648C9.71826 6.95996 9.75 7.03613 9.75 7.125V10.375C9.75 10.4639 9.71826 10.54 9.65479 10.6035C9.59131 10.667 9.51514 10.6987 9.42627 10.6987ZM8.44873 10.0513H9.10254V7.44873H8.44873V10.0513Z" fill="#999999"/>
</svg>
