<svg width="14" height="12" viewBox="0 0 14 12" fill="none" xmlns="http://www.w3.org/2000/svg">
<path d="M13.2827 4.33203L11.334 1.72949C11.3086 1.69564 11.2769 1.66813 11.2388 1.64697C11.2049 1.62581 11.1689 1.611 11.1309 1.60254L7.22705 0.955078C7.21012 0.950846 7.1932 0.94873 7.17627 0.94873C7.15934 0.94873 7.1403 0.950846 7.11914 0.955078L3.22168 1.60254C3.17936 1.611 3.13916 1.62581 3.10107 1.64697C3.06722 1.66813 3.0376 1.69564 3.01221 1.72949L1.06348 4.33203C1.01693 4.39128 0.995768 4.4611 1 4.5415C1.00423 4.61768 1.03174 4.68538 1.08252 4.74463L6.93506 11.2446C6.96468 11.2785 7.00065 11.306 7.04297 11.3271C7.08529 11.3441 7.12972 11.3525 7.17627 11.3525C7.22282 11.3525 7.26725 11.3441 7.30957 11.3271C7.35189 11.306 7.38786 11.2785 7.41748 11.2446L13.2637 4.74463C13.3187 4.68538 13.3462 4.61768 13.3462 4.5415C13.3504 4.4611 13.3293 4.39128 13.2827 4.33203ZM9.30908 4.19873L7.17627 10.0767L5.03711 4.19873H9.30908ZM5.36084 3.55127L7.17627 1.73584L8.9917 3.55127H5.36084ZM8.12207 1.76123L10.5278 2.16113L9.72168 3.36719L8.12207 1.76123ZM4.62451 3.36719L3.82471 2.16113L6.23047 1.76123L4.62451 3.36719ZM4.03418 3.65283L2.09814 4.04004L3.25977 2.48486L4.03418 3.65283ZM4.36426 4.24951L6.30029 9.5625L1.9458 4.73193L4.36426 4.24951ZM9.98193 4.24951L12.4004 4.73193L8.05225 9.5625L9.98193 4.24951ZM10.312 3.65283L11.0928 2.48486L12.2544 4.04004L10.312 3.65283Z" fill="#999999"/>
</svg>
