<svg width="15" height="13" viewBox="0 0 15 13" fill="none" xmlns="http://www.w3.org/2000/svg">
<path d="M13.9175 7.55664L8.1792 1.21533C8.09033 1.11377 7.98665 1.0376 7.86816 0.986816C7.75391 0.936035 7.63118 0.910645 7.5 0.910645C7.36882 0.910645 7.24398 0.936035 7.12549 0.986816C7.01123 1.0376 6.90967 1.11377 6.8208 1.21533L1.08252 7.55664C1.02327 7.62435 0.995768 7.70264 1 7.7915C1.00423 7.88037 1.0402 7.95443 1.10791 8.01367C1.13753 8.04329 1.17139 8.06657 1.20947 8.0835C1.24756 8.09619 1.28564 8.10254 1.32373 8.10254C1.37028 8.10254 1.41471 8.09408 1.45703 8.07715C1.49935 8.05599 1.53532 8.02848 1.56494 7.99463L2.94873 6.46484V11.6763C2.94873 11.9429 3.04395 12.1714 3.23438 12.3618C3.4248 12.5522 3.65544 12.6475 3.92627 12.6475H11.0737C11.3446 12.6475 11.5752 12.5522 11.7656 12.3618C11.9561 12.1714 12.0513 11.9429 12.0513 11.6763V6.46484L13.4351 7.99463C13.4943 8.05811 13.5684 8.09408 13.6572 8.10254C13.7461 8.10677 13.8244 8.07715 13.8921 8.01367C13.9598 7.95443 13.9958 7.88037 14 7.7915C14.0042 7.70264 13.9767 7.62435 13.9175 7.55664ZM8.80127 12H6.19873V9.07373C6.19873 8.98486 6.23047 8.90869 6.29395 8.84521C6.35742 8.78174 6.43359 8.75 6.52246 8.75H8.47754C8.56641 8.75 8.64258 8.78174 8.70605 8.84521C8.76953 8.90869 8.80127 8.98486 8.80127 9.07373V12ZM11.3975 11.6763C11.3975 11.7651 11.3657 11.8413 11.3022 11.9048C11.2388 11.9683 11.1626 12 11.0737 12H9.44873V9.07373C9.44873 8.80713 9.35352 8.57861 9.16309 8.38818C8.97266 8.19775 8.74414 8.10254 8.47754 8.10254H6.52246C6.25586 8.10254 6.02734 8.19775 5.83691 8.38818C5.64648 8.57861 5.55127 8.80713 5.55127 9.07373V12H3.92627C3.8374 12 3.76123 11.9683 3.69775 11.9048C3.63428 11.8413 3.60254 11.7651 3.60254 11.6763V5.74756L7.30322 1.64697C7.33285 1.61735 7.36247 1.59619 7.39209 1.5835C7.42594 1.56657 7.46191 1.55811 7.5 1.55811C7.53809 1.55811 7.57194 1.56657 7.60156 1.5835C7.63542 1.59619 7.66715 1.61735 7.69678 1.64697L11.3975 5.74756V11.6763Z" fill="#999999"/>
</svg>
