<svg width="11" height="13" viewBox="0 0 11 13" fill="none" xmlns="http://www.w3.org/2000/svg">
<path d="M8.42627 11.3525H1.92627C1.8374 11.3525 1.76123 11.3208 1.69775 11.2573C1.63428 11.1938 1.60254 11.1156 1.60254 11.0225C1.60254 10.9336 1.63428 10.8574 1.69775 10.7939C1.76123 10.7305 1.8374 10.6987 1.92627 10.6987H8.42627C8.51514 10.6987 8.59131 10.7305 8.65479 10.7939C8.71826 10.8574 8.75 10.9336 8.75 11.0225C8.75 11.1156 8.71826 11.1938 8.65479 11.2573C8.59131 11.3208 8.51514 11.3525 8.42627 11.3525ZM9.72754 1.60254C9.63444 1.60254 9.55615 1.63428 9.49268 1.69775C9.4292 1.76123 9.39746 1.8374 9.39746 1.92627V11.6763C9.39746 11.7651 9.36572 11.8413 9.30225 11.9048C9.23877 11.9683 9.1626 12 9.07373 12H1.92627C1.65544 12 1.4248 11.9048 1.23438 11.7144C1.04395 11.5239 0.94873 11.2933 0.94873 11.0225C0.94873 10.7559 1.04395 10.5273 1.23438 10.3369C1.4248 10.1465 1.65544 10.0513 1.92627 10.0513H7.77246C8.04329 10.0513 8.27393 9.95605 8.46436 9.76562C8.65479 9.5752 8.75 9.34456 8.75 9.07373V1.27246C8.75 1.00586 8.65479 0.777344 8.46436 0.586914C8.27393 0.396484 8.04329 0.30127 7.77246 0.30127H1.27246C1.00586 0.30127 0.777344 0.396484 0.586914 0.586914C0.396484 0.777344 0.30127 1.00586 0.30127 1.27246V11.0225C0.30127 11.2467 0.343587 11.4583 0.428223 11.6572C0.512858 11.8561 0.629232 12.0275 0.777344 12.1714C0.925456 12.3195 1.09684 12.4359 1.2915 12.5205C1.4904 12.6051 1.70199 12.6475 1.92627 12.6475H9.07373C9.34456 12.6475 9.5752 12.5522 9.76562 12.3618C9.95605 12.1714 10.0513 11.9429 10.0513 11.6763V1.92627C10.0513 1.8374 10.0195 1.76123 9.95605 1.69775C9.89258 1.63428 9.81641 1.60254 9.72754 1.60254ZM1.27246 0.94873H7.77246C7.86556 0.94873 7.94385 0.980469 8.00732 1.04395C8.0708 1.10742 8.10254 1.18359 8.10254 1.27246V9.07373C8.10254 9.1626 8.0708 9.23877 8.00732 9.30225C7.94385 9.36572 7.86556 9.39746 7.77246 9.39746H1.92627C1.7443 9.39746 1.56868 9.42708 1.39941 9.48633C1.23438 9.54557 1.08415 9.62598 0.94873 9.72754V1.27246C0.94873 1.18359 0.980469 1.10742 1.04395 1.04395C1.10742 0.980469 1.18359 0.94873 1.27246 0.94873Z" fill="#999999"/>
</svg>
